<?xml version="1.0" standalone="no"?>
<!DOCTYPE svg PUBLIC "-//W3C//DTD SVG 20010904//EN"
 "http://www.w3.org/TR/2001/REC-SVG-20010904/DTD/svg10.dtd">
<svg version="1.0" xmlns="http://www.w3.org/2000/svg"
 width="900.000000pt" height="897.000000pt" viewBox="0 0 900.000000 897.000000"
 preserveAspectRatio="xMidYMid meet">
<metadata>
Created by potrace 1.10, written by Peter Selinger 2001-2011
</metadata>
<g transform="translate(0.000000,897.000000) scale(0.100000,-0.100000)"
fill="#000000" stroke="none">
<path d="M1069 8913 c0 -32 -1 -156 -2 -275 -2 -194 -4 -219 -20 -235 -16 -17
-47 -18 -427 -18 -225 0 -412 -4 -416 -8 -9 -9 -5 -9 417 -9 190 1 371 -3 403
-7 31 -4 59 -4 62 1 3 5 5 135 5 291 0 345 1 317 -11 317 -5 0 -10 -26 -11
-57z"/>
<path d="M2250 8664 c0 -240 3 -305 13 -302 9 4 13 76 15 306 2 264 0 302 -13
302 -13 0 -15 -39 -15 -306z"/>
<path d="M3317 8878 c8 -129 23 -135 23 -10 0 82 -3 102 -14 102 -12 0 -14
-16 -9 -92z"/>
<path d="M4500 8915 c0 -30 5 -55 10 -55 6 0 10 8 10 18 0 9 3 34 6 55 5 30 4
37 -10 37 -13 0 -16 -11 -16 -55z"/>
<path d="M5571 8828 c0 -79 4 -152 9 -163 5 -12 9 42 9 143 1 102 -3 162 -9
162 -6 0 -10 -54 -9 -142z"/>
<path d="M6750 8775 c0 -107 4 -195 9 -195 13 0 19 69 21 238 1 132 -1 152
-14 152 -14 0 -16 -25 -16 -195z"/>
<path d="M7817 8863 c-3 -60 -6 -153 -6 -208 0 -55 0 -133 -1 -172 l0 -73 -37
-15 c-23 -10 -49 -13 -71 -9 -26 5 -34 4 -30 -7 3 -9 20 -12 54 -10 27 1 61
-2 76 -8 19 -7 29 -7 35 2 10 16 5 607 -6 607 -5 0 -11 -48 -14 -107z"/>
<path d="M5792 8723 c-59 -6 -49 -27 13 -31 29 -2 58 -11 73 -23 14 -10 41
-19 61 -19 20 0 45 -7 55 -15 11 -8 32 -15 47 -15 15 0 40 -7 55 -15 16 -8 36
-15 45 -15 9 0 30 -7 45 -15 16 -8 36 -15 45 -15 8 0 19 -4 25 -8 5 -5 32 -17
59 -27 80 -29 334 -148 395 -185 8 -5 53 -32 100 -60 125 -74 122 -73 161
-102 20 -16 40 -28 43 -28 10 0 196 -142 280 -213 66 -56 350 -337 406 -403
14 -16 48 -58 75 -94 28 -36 56 -72 63 -80 7 -8 35 -46 62 -85 27 -38 53 -75
57 -81 13 -17 33 -48 43 -69 6 -11 19 -33 30 -50 11 -16 24 -39 30 -50 6 -11
19 -33 29 -50 31 -49 161 -313 199 -405 8 -19 21 -48 28 -63 8 -16 14 -36 14
-45 0 -9 7 -26 15 -36 8 -11 15 -29 15 -41 0 -12 7 -30 15 -41 8 -10 15 -31
15 -45 0 -14 7 -34 15 -45 8 -10 15 -29 15 -42 0 -13 5 -33 12 -45 6 -12 15
-40 19 -62 4 -22 11 -53 17 -70 15 -43 32 -112 41 -165 5 -25 13 -65 19 -90
18 -76 33 -161 42 -240 5 -41 13 -95 19 -120 6 -25 11 -73 11 -107 0 -34 5
-96 11 -138 5 -42 11 -186 12 -320 1 -167 6 -248 13 -255 20 -20 28 9 36 135
19 301 21 558 4 755 -9 107 -21 227 -28 265 -6 39 -14 99 -18 135 -10 85 -31
192 -70 340 -6 25 -15 63 -20 85 -4 22 -12 54 -18 70 -6 17 -15 46 -22 65 -6
19 -15 49 -20 65 -5 17 -18 55 -30 85 -12 30 -26 69 -31 87 -5 18 -14 35 -19
38 -6 4 -10 17 -10 29 0 13 -7 29 -15 36 -8 7 -15 19 -15 27 0 13 -15 48 -41
93 -5 8 -12 22 -15 30 -3 8 -10 22 -15 30 -5 8 -11 20 -13 25 -2 6 -7 17 -10
25 -3 8 -15 29 -26 45 -11 17 -25 41 -31 55 -5 14 -21 38 -33 55 -13 16 -26
40 -30 53 -4 12 -12 22 -17 22 -5 0 -9 5 -9 10 0 12 -41 73 -52 78 -5 2 -8 8
-8 14 0 9 -84 124 -105 143 -7 6 -27 30 -46 55 -79 105 -287 309 -414 408 -33
25 -61 50 -63 54 -2 4 -20 17 -40 30 -20 12 -62 40 -92 63 -30 23 -62 45 -70
48 -8 4 -27 15 -41 25 -15 9 -53 33 -85 52 -33 19 -68 40 -79 47 -19 12 -29
16 -57 28 -7 3 -26 14 -43 25 -16 11 -37 23 -45 26 -8 3 -44 20 -80 36 -86 39
-152 68 -232 102 -18 7 -50 21 -71 30 -21 9 -42 16 -48 16 -6 0 -25 6 -42 14
-18 8 -63 24 -102 37 -38 12 -84 28 -102 36 -17 7 -42 13 -55 13 -12 0 -32 7
-42 15 -11 8 -36 15 -55 15 -20 0 -45 7 -55 15 -11 8 -39 15 -62 15 -23 0 -44
4 -46 9 -4 13 -45 19 -96 14z"/>
<path d="M3965 8698 c-66 -4 -156 -13 -200 -19 -44 -6 -111 -15 -150 -19 -38
-4 -83 -12 -98 -19 -16 -6 -43 -11 -61 -11 -19 0 -53 -7 -76 -15 -23 -8 -54
-15 -67 -15 -14 0 -47 -7 -74 -15 -27 -8 -71 -22 -98 -30 -27 -8 -56 -15 -65
-15 -8 0 -30 -6 -48 -14 -42 -17 -94 -35 -133 -46 -52 -14 -101 -33 -202 -76
-155 -66 -177 -76 -193 -85 -8 -5 -22 -12 -30 -15 -8 -3 -51 -23 -95 -45 -71
-35 -111 -56 -235 -125 -19 -11 -62 -37 -95 -59 -33 -22 -68 -44 -77 -50 -84
-51 -329 -234 -400 -297 -20 -18 -47 -42 -60 -53 -118 -103 -240 -222 -328
-320 -58 -65 -112 -125 -121 -134 -8 -9 -37 -45 -64 -81 -27 -36 -53 -66 -57
-68 -4 -2 -17 -20 -30 -40 -12 -20 -47 -71 -77 -112 -61 -82 -77 -107 -88
-130 -4 -8 -9 -17 -13 -20 -7 -6 -103 -166 -114 -190 -3 -8 -15 -28 -26 -45
-11 -16 -22 -37 -26 -45 -3 -8 -10 -22 -15 -30 -5 -8 -12 -22 -15 -30 -3 -8
-10 -22 -15 -30 -5 -8 -12 -22 -15 -30 -3 -8 -10 -22 -15 -30 -5 -8 -12 -22
-15 -30 -3 -8 -12 -27 -20 -42 -8 -14 -14 -33 -14 -41 0 -8 -7 -20 -15 -27 -8
-7 -15 -23 -15 -35 0 -12 -7 -28 -15 -35 -8 -7 -15 -22 -15 -34 0 -11 -7 -30
-15 -40 -8 -11 -15 -29 -15 -40 0 -12 -7 -30 -15 -40 -8 -11 -15 -29 -15 -40
0 -12 -7 -30 -15 -40 -8 -11 -15 -31 -15 -45 0 -14 -7 -35 -15 -45 -8 -11 -15
-31 -15 -45 -1 -14 -7 -37 -15 -51 -8 -14 -14 -38 -15 -53 0 -16 -5 -38 -12
-50 -6 -12 -15 -42 -19 -67 -4 -25 -12 -64 -18 -87 -27 -106 -32 -132 -41
-201 -5 -40 -12 -77 -16 -84 -4 -6 -11 -54 -15 -107 -5 -53 -13 -123 -18 -156
-13 -82 -13 -685 0 -765 5 -36 14 -111 19 -168 5 -56 12 -107 16 -113 4 -7 10
-39 14 -73 7 -58 14 -91 40 -196 6 -25 15 -65 19 -90 4 -25 13 -55 19 -67 7
-12 12 -34 12 -50 1 -15 7 -39 15 -53 8 -14 14 -37 15 -51 0 -14 7 -34 15 -45
8 -10 15 -31 15 -45 0 -14 7 -34 15 -45 8 -10 15 -28 15 -40 0 -11 7 -29 15
-40 8 -10 15 -28 15 -40 0 -11 7 -29 15 -40 8 -10 15 -29 15 -40 0 -12 7 -27
15 -34 8 -7 15 -23 15 -35 0 -12 7 -28 15 -35 8 -7 15 -19 15 -27 0 -8 6 -27
14 -41 8 -15 31 -61 51 -102 20 -41 40 -82 45 -90 5 -8 11 -22 14 -30 4 -8 15
-28 26 -45 11 -16 22 -37 26 -45 6 -17 8 -20 65 -115 23 -38 45 -72 48 -75 8
-6 29 -41 38 -60 4 -8 32 -49 63 -90 31 -41 66 -92 78 -112 13 -20 26 -38 30
-40 4 -2 30 -32 57 -68 27 -36 56 -72 64 -81 9 -9 54 -59 101 -110 135 -150
286 -296 440 -424 67 -57 278 -215 286 -215 3 0 34 -22 68 -48 52 -41 95 -67
96 -59 0 1 3 202 6 447 3 245 9 537 15 650 5 113 12 368 16 567 8 449 19 407
-166 598 -91 95 -161 176 -161 188 0 4 -12 23 -26 44 -14 21 -30 47 -35 58 -5
11 -13 27 -18 35 -5 8 -17 33 -26 55 -10 22 -24 52 -32 67 -7 14 -13 39 -13
55 0 15 -7 53 -16 83 -22 79 -22 915 0 1139 9 85 16 195 16 245 0 50 7 138 15
196 8 58 15 141 15 185 0 44 7 125 15 180 8 55 15 132 15 171 0 39 5 97 11
129 6 33 15 114 19 180 14 192 30 365 40 438 12 83 13 324 2 331 -14 8 -53
-98 -74 -197 -29 -142 -74 -469 -97 -712 -12 -121 -26 -263 -31 -315 -9 -86
-22 -225 -35 -385 -5 -57 -12 -162 -36 -525 -16 -245 -21 -759 -9 -915 26
-329 110 -513 367 -803 51 -57 101 -123 113 -147 31 -63 34 -138 21 -560 -6
-209 -13 -513 -17 -675 -10 -507 -14 -550 -46 -550 -36 0 -131 70 -366 272
-81 69 -307 306 -416 436 -273 324 -492 707 -669 1172 -114 299 -192 623 -237
985 -25 204 -28 649 -5 825 56 436 136 756 288 1160 37 100 146 322 227 466
74 131 257 408 314 476 378 448 582 637 972 899 140 94 185 120 382 220 233
119 306 151 532 234 74 27 321 98 395 113 352 74 634 103 985 103 516 -2 947
-80 1383 -252 102 -40 117 -46 277 -114 340 -145 743 -413 1064 -709 142 -132
425 -441 494 -543 19 -26 62 -88 97 -137 112 -159 318 -541 412 -766 117 -277
198 -566 248 -876 41 -253 58 -742 34 -1009 -21 -242 -69 -536 -112 -690 -8
-27 -25 -88 -37 -133 -38 -141 -105 -307 -125 -310 -10 -2 -42 8 -72 24 -63
31 -131 41 -189 25 -95 -26 -186 -118 -218 -222 -35 -115 22 -235 157 -327 26
-18 48 -38 48 -45 3 -32 -6 -58 -43 -122 -110 -189 -264 -395 -297 -395 -10 0
-31 18 -46 40 -68 99 -156 150 -223 131 -75 -22 -172 -134 -172 -200 0 -19 9
-54 21 -78 21 -43 111 -133 134 -133 6 0 20 -9 29 -19 13 -15 15 -24 7 -39
-12 -22 -310 -300 -338 -315 -10 -5 -43 -31 -73 -56 -149 -126 -479 -341 -523
-341 -17 0 -19 5 -14 36 8 46 -2 69 -53 127 -58 65 -87 79 -134 65 -45 -14
-122 -95 -131 -137 -8 -37 20 -93 69 -140 45 -43 45 -64 4 -89 -93 -57 -497
-205 -596 -218 -45 -6 -51 -4 -62 15 -31 58 -61 736 -60 1349 1 952 27 1041
401 1357 298 253 475 494 567 770 37 112 77 323 91 476 14 146 14 451 1 589
-5 58 -14 158 -20 222 -24 276 -91 565 -183 788 -112 271 -281 525 -473 710
-266 255 -509 371 -736 349 -216 -20 -446 -150 -683 -386 -176 -175 -270 -308
-384 -538 -183 -370 -254 -729 -268 -1365 -4 -198 -2 -289 11 -408 18 -171 50
-349 72 -400 8 -19 14 -41 14 -49 0 -15 30 -90 76 -190 68 -150 241 -358 456
-551 70 -62 156 -144 191 -182 76 -83 149 -215 188 -340 76 -248 84 -361 74
-1023 -8 -584 -9 -627 -24 -817 -6 -74 -13 -178 -16 -230 -10 -151 -26 -249
-45 -273 -16 -19 -31 -22 -136 -28 -137 -7 -553 7 -633 21 -29 5 -57 7 -62 5
-4 -3 -39 1 -76 10 -37 8 -99 19 -138 25 -61 9 -271 53 -307 64 -294 91 -450
146 -487 174 -13 10 -30 34 -37 55 -14 41 -29 267 -45 687 -6 157 -14 335 -18
395 -4 61 -9 317 -10 571 -2 432 -1 464 17 511 27 71 76 141 193 273 267 304
296 368 320 699 13 194 8 809 -11 1116 -37 638 -68 1057 -100 1360 -32 304
-87 545 -122 545 -18 0 8 -624 31 -771 6 -35 11 -102 11 -149 0 -47 7 -140 15
-205 8 -66 15 -167 15 -225 1 -58 5 -141 11 -185 5 -44 13 -199 19 -345 5
-146 14 -378 20 -516 11 -245 10 -277 -17 -754 -3 -63 -11 -113 -19 -125 -8
-11 -14 -29 -14 -41 0 -12 -7 -27 -15 -34 -8 -7 -15 -17 -15 -22 0 -14 -118
-167 -176 -228 -86 -89 -123 -132 -167 -190 -120 -158 -133 -219 -123 -558 3
-125 11 -393 16 -597 5 -203 14 -415 20 -470 5 -55 9 -170 10 -256 0 -86 7
-244 16 -350 8 -107 13 -209 10 -227 -4 -30 -2 -34 36 -52 23 -11 47 -20 54
-20 7 0 25 -6 41 -14 62 -30 144 -62 198 -76 17 -4 41 -12 55 -18 14 -5 52
-17 85 -27 33 -9 74 -21 90 -27 17 -5 46 -14 65 -18 19 -5 54 -14 78 -19 100
-26 130 -32 188 -41 34 -5 74 -14 88 -20 15 -5 47 -10 71 -10 23 0 76 -6 116
-14 149 -29 569 -40 834 -22 l131 9 13 101 c7 55 17 166 22 246 4 80 13 186
18 235 6 50 11 153 11 230 1 77 5 190 10 250 17 203 24 830 11 950 -7 61 -16
151 -21 200 -5 50 -14 109 -19 133 -28 110 -33 130 -40 165 -5 21 -14 44 -20
50 -6 6 -11 19 -11 28 0 10 -7 30 -14 46 -8 15 -18 35 -21 43 -3 8 -14 29 -25
45 -11 17 -23 37 -27 45 -31 67 -112 155 -268 290 -209 180 -383 372 -424 467
-6 11 -15 24 -20 28 -6 3 -11 14 -11 24 0 9 -5 22 -12 29 -11 11 -34 65 -45
107 -2 11 -11 34 -18 50 -17 39 -35 108 -44 170 -4 28 -13 77 -19 110 -22 115
-35 379 -28 566 9 264 23 502 30 519 3 8 11 56 16 105 13 123 38 242 72 340 6
17 13 44 16 60 2 17 11 39 18 50 8 11 14 27 14 36 0 10 6 30 14 46 8 15 22 46
32 68 9 22 21 47 26 55 4 8 11 22 14 30 3 8 9 22 14 30 5 8 20 35 32 60 13 25
25 47 29 50 3 3 16 23 29 45 80 133 240 318 365 420 78 63 196 145 235 160 8
4 22 11 30 16 16 10 24 13 80 33 168 61 245 61 395 1 58 -23 111 -49 153 -77
24 -15 45 -28 48 -28 16 0 142 -107 230 -195 85 -84 224 -252 224 -269 0 -3
13 -24 29 -48 16 -24 39 -61 50 -83 37 -67 41 -74 51 -92 6 -10 13 -25 16 -33
4 -8 19 -43 35 -78 16 -34 29 -68 29 -75 0 -7 7 -22 15 -33 8 -10 15 -30 15
-44 0 -15 5 -31 11 -37 6 -6 15 -29 19 -50 5 -21 13 -51 18 -68 17 -50 32
-117 42 -185 5 -36 14 -78 19 -94 6 -15 11 -51 11 -79 0 -29 6 -88 14 -133 20
-110 30 -599 17 -789 -10 -142 -19 -209 -42 -300 -6 -22 -14 -58 -19 -80 -9
-47 -27 -99 -46 -138 -8 -16 -14 -37 -14 -47 0 -9 -7 -23 -15 -30 -8 -7 -15
-20 -15 -30 0 -10 -7 -23 -15 -30 -8 -7 -15 -17 -15 -22 0 -6 -13 -30 -30 -55
-16 -24 -30 -46 -30 -49 0 -6 -7 -15 -88 -109 -87 -101 -173 -187 -237 -238
-70 -55 -192 -165 -234 -211 -20 -21 -43 -46 -52 -55 -26 -26 -74 -103 -103
-165 -35 -73 -54 -141 -66 -231 -5 -38 -13 -92 -19 -120 -14 -69 -26 -393 -26
-680 0 -280 21 -971 30 -985 3 -6 10 -103 16 -217 13 -288 20 -363 33 -364 25
-3 52 4 70 17 11 8 31 14 43 14 12 0 37 6 55 14 18 7 53 19 78 25 83 22 109
30 213 67 114 42 174 66 287 116 67 30 305 150 335 169 17 10 40 23 53 29 12
5 48 26 80 47 75 49 94 61 112 69 8 4 31 20 51 36 20 15 40 28 43 28 6 0 183
133 286 216 155 124 469 437 556 556 13 17 28 34 32 37 15 10 192 250 192 260
0 5 3 11 8 13 11 5 52 66 52 78 0 5 4 10 8 10 5 0 14 10 21 23 6 12 20 36 31
52 11 17 24 39 30 50 6 11 19 34 30 50 11 17 31 53 45 80 14 28 35 64 45 80
33 53 120 232 120 247 0 8 7 23 15 34 8 10 15 28 15 39 0 11 7 29 15 39 8 11
15 29 15 40 0 12 7 30 15 40 8 11 15 29 15 40 0 12 7 30 15 40 8 11 15 29 15
41 0 11 6 29 14 40 7 11 16 34 18 50 3 17 10 44 16 60 6 17 16 46 22 65 7 19
16 53 20 75 10 45 25 105 46 181 8 28 14 62 14 75 0 13 7 46 15 73 8 27 15 68
15 90 0 23 5 57 11 76 5 19 14 89 19 155 5 66 14 165 19 220 6 55 10 156 10
225 0 69 -4 170 -10 225 -5 55 -14 154 -19 220 -5 66 -14 136 -19 155 -6 19
-11 53 -11 76 0 23 -7 61 -15 84 -8 23 -15 56 -15 73 0 17 -6 53 -14 81 -21
76 -36 136 -46 181 -4 22 -13 56 -20 75 -22 63 -32 95 -40 125 -13 48 -31 98
-46 128 -8 16 -14 35 -14 42 0 8 -7 31 -16 52 -19 44 -41 95 -59 138 -22 52
-76 169 -86 185 -5 8 -12 22 -15 30 -3 8 -9 22 -14 30 -5 8 -27 51 -50 95 -23
44 -50 94 -61 110 -10 17 -23 39 -29 50 -6 11 -19 34 -30 50 -11 17 -25 40
-31 53 -7 12 -16 22 -21 22 -4 0 -8 5 -8 10 0 12 -41 73 -52 78 -5 2 -8 8 -8
13 0 10 -177 250 -192 260 -4 3 -19 20 -32 37 -62 85 -294 325 -437 453 -89
80 -151 131 -278 226 -53 40 -101 77 -108 83 -7 5 -15 10 -19 10 -3 0 -23 13
-43 28 -20 16 -43 32 -51 36 -18 8 -37 20 -112 69 -32 21 -68 42 -80 47 -13 6
-36 19 -53 29 -16 11 -66 38 -110 61 -44 23 -87 45 -95 49 -17 10 -80 38 -125
57 -29 12 -60 25 -135 57 -19 8 -55 23 -80 32 -25 9 -60 23 -78 31 -18 8 -41
14 -50 14 -10 0 -23 5 -29 11 -6 6 -29 15 -50 19 -21 5 -51 13 -68 18 -16 6
-57 18 -90 27 -33 9 -81 23 -106 31 -26 8 -58 14 -72 14 -13 0 -44 7 -67 15
-23 8 -57 15 -76 15 -18 0 -45 5 -61 11 -15 6 -64 15 -108 19 -44 5 -109 13
-145 19 -176 28 -535 37 -785 19z m3953 -5732 c74 -47 87 -69 87 -150 0 -60
-4 -78 -24 -108 -44 -64 -85 -82 -182 -79 -54 2 -121 64 -137 128 -23 89 8
157 98 216 38 25 113 22 158 -7z m-652 -954 c53 -67 14 -160 -70 -169 -35 -4
-47 -1 -74 22 -61 51 -49 136 26 174 33 17 40 18 71 5 19 -8 40 -22 47 -32z
m-1147 -931 c20 -28 21 -31 5 -65 -15 -31 -37 -45 -71 -46 -22 0 -63 47 -63
72 0 66 91 93 129 39z"/>
<path d="M7255 8381 c-2 -5 5 -11 18 -13 37 -7 362 2 364 10 4 10 -375 13
-382 3z"/>
<path d="M103 8373 c15 -2 37 -2 50 0 12 2 0 4 -28 4 -27 0 -38 -2 -22 -4z"/>
<path d="M1135 8324 c-11 -4 -10 -471 1 -514 l7 -25 7 25 c5 14 9 122 9 240 1
118 6 222 11 230 8 13 79 15 517 18 304 2 512 7 517 12 7 7 -178 10 -504 10
-283 0 -524 2 -535 5 -11 2 -24 2 -30 -1z"/>
<path d="M7863 8316 c-7 -10 6 -449 13 -456 16 -15 22 44 22 199 0 102 4 187
10 202 9 23 19 28 68 34 31 4 264 5 518 4 348 -2 461 0 461 9 0 14 -1084 22
-1092 8z"/>
<path d="M1498 7843 c-1 -5 -23 -18 -48 -31 -25 -13 -58 -32 -75 -42 -16 -11
-40 -25 -52 -31 -13 -7 -23 -16 -23 -21 0 -4 -5 -8 -11 -8 -21 0 -169 -121
-271 -222 -58 -57 -132 -141 -166 -188 -34 -47 -68 -92 -75 -100 -7 -8 -22
-33 -32 -55 -11 -22 -23 -41 -27 -43 -11 -5 -10 -62 1 -62 4 0 21 19 37 43 16
23 32 47 37 52 4 6 36 50 72 98 119 163 237 279 425 419 58 43 114 85 125 93
10 8 25 15 32 15 7 0 13 4 13 9 0 10 38 34 72 47 31 11 30 34 -1 34 -16 0 -31
-3 -33 -7z"/>
<path d="M8898 7265 c-3 -3 -124 -6 -269 -6 -266 0 -333 -4 -323 -20 7 -11
654 -12 654 -1 0 22 -47 42 -62 27z"/>
<path d="M0 7201 c0 -5 8 -10 18 -13 14 -3 242 -2 612 2 33 0 41 3 30 10 -19
12 -660 13 -660 1z"/>
<path d="M7696 7202 c-9 -16 25 -22 64 -13 29 7 30 9 10 10 -14 1 -35 4 -46 7
-12 3 -25 1 -28 -4z"/>
<path d="M7821 7070 c0 -41 4 -84 9 -95 6 -13 9 6 9 60 0 44 -4 87 -9 95 -7
10 -10 -8 -9 -60z"/>
<path d="M2482 7064 c-45 -36 -57 -64 -75 -174 -18 -111 -25 -222 -32 -535 -8
-374 -16 -535 -27 -541 -17 -11 -29 19 -23 57 2 20 1 61 -5 90 -10 59 -23 240
-40 559 -20 371 -36 457 -97 510 -19 17 -37 30 -42 30 -18 0 -70 -57 -84 -90
-25 -61 -30 -158 -42 -760 -8 -386 -28 -720 -45 -720 -12 0 -31 214 -41 464
-5 138 -11 310 -14 381 -10 254 -27 451 -46 542 -10 51 -19 95 -19 98 0 3 -4
5 -9 5 -5 0 -17 -20 -26 -45 -16 -40 -17 -87 -11 -522 6 -559 21 -991 35
-1083 6 -36 11 -101 11 -145 0 -44 7 -107 15 -140 8 -33 14 -79 15 -101 0 -23
7 -61 15 -84 8 -23 15 -52 15 -64 0 -33 42 -80 66 -72 20 6 49 53 58 96 2 14
9 43 15 65 18 74 33 189 41 320 5 72 14 216 20 320 9 135 11 378 6 843 l-6
652 24 0 c20 0 25 -7 35 -57 6 -33 16 -264 21 -523 15 -638 27 -964 39 -1035
6 -33 11 -97 11 -142 0 -45 7 -117 15 -160 8 -43 15 -97 15 -119 0 -23 7 -61
15 -84 8 -23 15 -55 15 -69 0 -35 35 -107 56 -115 34 -13 53 24 65 124 4 36
12 92 18 125 6 33 11 105 12 160 0 55 4 138 10 185 5 47 14 373 20 725 15 902
20 1009 41 1013 11 2 23 -8 32 -27 14 -26 16 -129 16 -863 1 -458 5 -891 11
-963 29 -393 39 -453 74 -479 17 -12 23 -12 48 6 52 38 77 90 77 165 0 38 5
120 10 183 6 63 15 268 20 455 6 187 14 403 20 480 10 154 13 897 4 933 -4 12
-9 22 -13 22 -9 0 -48 -120 -61 -190 -16 -84 -40 -308 -40 -376 0 -40 -5 -66
-14 -73 -11 -9 -14 22 -20 196 -8 229 -21 388 -38 446 -15 49 -83 127 -111
127 -12 0 -37 -12 -55 -26z"/>
<path d="M58 6123 c23 -2 59 -2 80 0 20 2 1 4 -43 4 -44 0 -61 -2 -37 -4z"/>
<path d="M8780 6060 c0 -5 29 -11 65 -12 36 -1 75 -2 87 -2 12 -1 23 5 26 12
3 9 -19 12 -87 12 -54 0 -91 -4 -91 -10z"/>
<path d="M8835 5003 c-52 -13 -33 -23 44 -23 62 0 82 3 79 13 -5 12 -86 19
-123 10z"/>
<path d="M8560 3810 c0 -10 64 -13 215 -10 39 0 91 -3 117 -8 45 -9 68 -2 68
20 0 4 -90 8 -200 8 -127 0 -200 -4 -200 -10z"/>
<path d="M7174 3082 c-58 -42 -84 -79 -84 -119 0 -27 10 -44 53 -88 33 -35 62
-55 76 -55 51 0 115 56 140 123 14 35 -1 67 -56 119 -54 52 -79 56 -129 20z
m93 -74 c30 -28 29 -59 -2 -86 -31 -27 -45 -28 -73 -2 -27 26 -28 64 -2 90 26
26 48 25 77 -2z"/>
<path d="M6724 2796 c-28 -27 -44 -52 -44 -67 0 -49 67 -119 113 -119 32 0
107 84 107 119 0 31 -79 111 -110 111 -13 0 -40 -18 -66 -44z m89 -28 c23 -11
27 -18 25 -48 -3 -33 -6 -35 -40 -38 -30 -3 -40 1 -54 23 -16 25 -16 27 6 50
27 29 27 29 63 13z"/>
<path d="M8927 2763 c-4 -4 -152 -7 -330 -8 -394 -2 -407 -3 -407 -15 0 -6
135 -10 386 -10 348 0 386 2 380 16 -3 9 -6 18 -6 20 0 6 -16 5 -23 -3z"/>
<path d="M10 2700 c-18 -12 -20 -12 140 -14 137 -3 207 7 120 16 -94 10 -244
9 -260 -2z"/>
<path d="M7183 2681 c-123 -89 -130 -175 -24 -274 70 -65 111 -63 186 10 56
54 77 100 65 143 -11 37 -79 113 -122 136 -39 20 -60 18 -105 -15z m111 -92
c70 -55 -10 -172 -83 -120 -36 26 -46 62 -26 100 23 46 66 54 109 20z"/>
<path d="M6635 2449 c-41 -44 -46 -54 -41 -82 7 -38 95 -127 125 -127 25 0 83
50 111 95 20 33 21 36 5 70 -25 52 -79 95 -119 95 -27 0 -42 -9 -81 -51z m122
-41 c29 -27 29 -36 1 -65 -40 -42 -88 -25 -88 32 0 56 44 73 87 33z"/>
<path d="M6314 2161 c-38 -17 -87 -68 -113 -118 -15 -30 -14 -78 3 -111 22
-41 96 -109 140 -127 59 -25 88 -13 150 62 79 95 80 148 6 234 -40 47 -92 79
-127 79 -10 0 -36 -9 -59 -19z m94 -92 c21 -7 35 -22 45 -47 13 -32 13 -39 -3
-66 -46 -84 -160 -61 -160 32 1 42 16 67 51 81 31 13 31 13 67 0z"/>
<path d="M7826 2065 c-4 -11 -10 -105 -13 -210 -2 -107 -8 -195 -14 -201 -6
-7 -19 -14 -30 -16 -11 -2 -21 -7 -22 -13 -3 -14 82 -24 91 -11 4 6 5 115 2
241 -3 141 -8 222 -14 210z"/>
<path d="M6424 1780 c-26 -10 -102 -104 -121 -149 -19 -44 -11 -80 27 -135 74
-109 161 -134 243 -71 117 89 133 186 46 280 -62 68 -140 98 -195 75z m100
-110 c33 -12 61 -69 52 -104 -3 -14 -19 -37 -34 -51 -73 -68 -184 24 -137 115
23 45 68 60 119 40z"/>
<path d="M219 1630 c-7 -5 -7 -9 3 -12 24 -8 533 -2 536 7 2 10 -522 15 -539
5z"/>
<path d="M805 1630 c-10 -16 15 -21 80 -16 33 2 75 5 94 5 67 2 22 12 -72 17
-61 3 -98 1 -102 -6z"/>
<path d="M7548 1628 c-15 -9 -16 -9 79 -10 37 -1 69 4 70 9 4 12 -130 13 -149
1z"/>
<path d="M58 1623 c23 -2 59 -2 80 0 20 2 1 4 -43 4 -44 0 -61 -2 -37 -4z"/>
<path d="M7867 1574 c-4 -4 -7 -252 -7 -551 l1 -543 549 0 c309 0 550 4 550 9
0 12 -26 32 -33 25 -3 -4 -227 -6 -498 -6 -477 0 -492 0 -511 20 -20 19 -20
33 -20 488 0 294 4 479 10 495 9 21 19 28 56 33 25 4 258 6 518 5 355 -2 473
0 476 9 3 9 -124 12 -526 12 -292 0 -537 2 -544 5 -8 3 -17 2 -21 -1z"/>
<path d="M1140 1165 c-2 -380 -7 -582 -15 -643 l-6 -42 555 0 555 0 0 164 c-1
91 2 174 6 184 5 17 -3 25 -42 44 -26 12 -49 26 -51 31 -5 10 -42 9 -42 -2 0
-5 8 -12 18 -15 9 -3 31 -27 48 -53 29 -46 31 -53 32 -163 1 -99 -2 -119 -18
-140 l-19 -25 -403 -3 c-467 -3 -583 2 -594 26 -4 10 -9 224 -11 477 -2 253
-5 467 -7 475 -2 8 -5 -133 -6 -315z"/>
<path d="M6690 845 c0 -8 5 -15 10 -15 6 0 10 7 10 15 0 8 -4 15 -10 15 -5 0
-10 -7 -10 -15z"/>
<path d="M6690 755 c0 -8 5 -15 10 -15 6 0 10 7 10 15 0 8 -4 15 -10 15 -5 0
-10 -7 -10 -15z"/>
<path d="M6693 593 c-7 -3 -13 -17 -13 -33 0 -15 -6 -32 -13 -38 -9 -8 -101
-12 -273 -12 -308 -1 -524 -10 -524 -22 0 -4 192 -7 427 -6 l428 3 -3 39 c-5
52 -14 74 -29 69z"/>
<path d="M0 445 c0 -13 31 -15 218 -15 502 -1 788 -7 813 -18 15 -6 29 -21 32
-34 4 -13 7 -103 7 -200 0 -103 4 -178 9 -178 9 0 21 434 13 453 -2 4 -248 7
-548 7 -477 0 -544 -2 -544 -15z"/>
<path d="M2250 230 c0 -139 4 -230 10 -230 13 0 22 56 18 125 -1 33 -1 108 0
167 l2 107 32 15 c20 11 59 16 112 16 45 0 133 3 196 7 109 7 112 8 55 14 -33
4 -142 7 -242 8 l-183 1 0 -230z"/>
<path d="M6750 230 c0 -147 4 -230 10 -230 6 0 10 6 10 13 1 6 2 88 4 182 4
227 3 215 25 215 11 0 23 5 26 10 4 7 169 10 486 10 440 -1 480 -2 488 -18 5
-9 12 -105 16 -212 6 -183 9 -210 19 -199 3 2 6 105 7 229 l2 225 -546 3 -547
2 0 -230z"/>
<path d="M5004 385 c-12 -9 -42 -14 -81 -15 -34 0 -65 -4 -68 -10 -11 -18 43
-22 105 -6 34 9 72 16 85 16 30 0 55 10 55 21 0 15 -75 10 -96 -6z"/>
<path d="M5573 348 c-11 -44 -4 -348 8 -348 5 0 9 80 9 190 0 105 -2 190 -5
190 -2 0 -8 -15 -12 -32z"/>
<path d="M3327 247 c-10 -27 -8 -247 3 -247 6 0 10 48 10 130 0 126 -2 145
-13 117z"/>
<path d="M4500 92 c0 -55 4 -92 10 -92 17 0 16 156 -1 175 -5 5 -9 -27 -9 -83z"/>
</g>
</svg>
